<?xml version="1.0" encoding="utf-8"?>
<!-- Generator: Adobe Illustrator 18.0.0, SVG Export Plug-In . SVG Version: 6.00 Build 0)  -->
<!DOCTYPE svg PUBLIC "-//W3C//DTD SVG 1.1//EN" "http://www.w3.org/Graphics/SVG/1.1/DTD/svg11.dtd">
<svg version="1.1" id="Layer_2" xmlns="http://www.w3.org/2000/svg"  x="0px" y="0px"
	 width="163px" height="154px" viewBox="0 0 163 154" style="enable-background:new 0 0 163 154;" xml:space="preserve">
<style type="text/css">
	.st0{fill:#3355CC;stroke:#000000;stroke-width:0.25;stroke-miterlimit:10;}
</style>
<g>
	<circle class="st0" cx="81.5" cy="77" r="14.7"/>
	<path class="st0" d="M81.5,3c-11.2,0-19.2,9.1-19.2,20.3c0,8.3,6.7,15.4,13,18.6c-0.9-1.3-1.4-2.8-1.4-4.4c0-4.2,3.4-7.6,7.6-7.6
		c4.2,0,7.6,3.4,7.6,7.6c0,1.8-0.6,3.5-1.7,4.8c6.8-2.9,13.3-10.3,13.3-19C100.7,12.1,92.7,3,81.5,3z"/>
	<path class="st0" d="M29.2,24.7c-7.9,7.9-7.1,20,0.8,28c5.9,5.9,15.7,6.2,22.3,4c-1.5-0.3-3-1-4.2-2.1c-3-3-3-7.8,0-10.8
		c3-3,7.8-3,10.8,0c1.3,1.3,2,2.9,2.2,4.6c2.7-6.9,2.1-16.7-4-22.8C49.2,17.5,37.1,16.7,29.2,24.7z"/>
	<path class="st0" d="M7.5,77c0,11.2,9.1,19.2,20.3,19.2c8.3,0,15.4-6.7,18.6-13c-1.3,0.9-2.8,1.4-4.4,1.4c-4.2,0-7.6-3.4-7.6-7.6
		c0-4.2,3.4-7.6,7.6-7.6c1.8,0,3.5,0.6,4.8,1.7c-2.9-6.8-10.3-13.3-19-13.3C16.6,57.8,7.5,65.8,7.5,77z"/>
	<path class="st0" d="M29.2,129.3c7.9,7.9,20,7.1,28-0.8c5.9-5.9,6.2-15.7,4-22.3c-0.3,1.5-1,3-2.1,4.2c-3,3-7.8,3-10.8,0
		c-3-3-3-7.8,0-10.8c1.3-1.3,2.9-2,4.6-2.2c-6.9-2.7-16.7-2.1-22.8,4C22,109.3,21.2,121.4,29.2,129.3z"/>
	<path class="st0" d="M81.5,151c11.2,0,19.2-9.1,19.2-20.3c0-8.3-6.7-15.4-13-18.6c0.9,1.3,1.4,2.8,1.4,4.4c0,4.2-3.4,7.6-7.6,7.6
		c-4.2,0-7.6-3.4-7.6-7.6c0-1.8,0.6-3.5,1.7-4.8c-6.8,2.9-13.3,10.3-13.3,19C62.3,141.9,70.3,151,81.5,151z"/>
	<path class="st0" d="M133.8,129.3c7.9-7.9,7.1-20-0.8-28c-5.9-5.9-15.7-6.2-22.3-4c1.5,0.3,3,1,4.2,2.1c3,3,3,7.8,0,10.8
		s-7.8,3-10.8,0c-1.3-1.3-2-2.9-2.2-4.6c-2.7,6.9-2.1,16.7,4,22.8C113.8,136.5,125.9,137.3,133.8,129.3z"/>
	<path class="st0" d="M155.5,77c0-11.2-9.1-19.2-20.3-19.2c-8.3,0-15.4,6.7-18.6,13c1.3-0.9,2.8-1.4,4.4-1.4c4.2,0,7.6,3.4,7.6,7.6
		c0,4.2-3.4,7.6-7.6,7.6c-1.8,0-3.5-0.6-4.8-1.7c2.9,6.8,10.3,13.3,19,13.3C146.4,96.2,155.5,88.2,155.5,77z"/>
	<path class="st0" d="M133.8,24.7c-7.9-7.9-20-7.1-28,0.8c-5.9,5.9-6.2,15.7-4,22.3c0.3-1.5,1-3,2.1-4.2c3-3,7.8-3,10.8,0
		c3,3,3,7.8,0,10.8c-1.3,1.3-2.9,2-4.6,2.2c6.9,2.7,16.7,2.1,22.8-4C141,44.7,141.8,32.6,133.8,24.7z"/>
</g>
</svg>
